<?xml version="1.0" encoding="UTF-8"?>
<svg version="1.1" xmlns="http://www.w3.org/2000/svg" width="500" height="500">
<path d="M0 0 C0.66 0 1.32 0 2 0 C-6.803423 38.14816632 -40.75387565 72.77189803 -72.75 93.0625 C-129.15158275 128.06388751 -190.68724618 124.38645148 -254.19262695 118.40917969 C-310.14443966 111.8514392 -310.14443966 111.8514392 -361 131 C-367.56955227 136.82582937 -371.53948857 145.67352573 -372.17700195 154.43164062 C-373.10105696 195.51711405 -359.26142037 232.09113608 -331.4453125 262.453125 C-324.61540626 269.56670146 -317.62807982 275.61008328 -309.1171875 280.625 C-307 282 -307 282 -306 284 C-331.75831131 282.45450132 -354.88152808 263.12723034 -371.6875 245.125 C-388.40638898 225.96605695 -400.54756261 201.79424159 -406 177 C-406.22429687 176.0925 -406.44859375 175.185 -406.6796875 174.25 C-411.04269752 153.69006235 -409.00270857 131.09099197 -398 113 C-390.90230363 102.42170252 -382.06565298 94.25071617 -371 88 C-369.98550781 87.41347656 -368.97101563 86.82695312 -367.92578125 86.22265625 C-361.13296876 82.54891032 -354.32676037 79.93478878 -346.9375 77.75 C-346.16680176 77.51595459 -345.39610352 77.28190918 -344.60205078 77.04077148 C-328.33649458 72.51643748 -311.48473975 71.44518076 -294.6875 71.5625 C-293.77534729 71.56487671 -292.86319458 71.56725342 -291.92340088 71.56970215 C-268.9047784 71.66206864 -246.23498296 74.17514082 -223.4296875 77.0859375 C-221.37517487 77.34758722 -219.32062209 77.60890566 -217.26596069 77.86938477 C-215.9305972 78.03870317 -214.59532938 78.20877792 -213.26016235 78.37963867 C-202.05024138 79.80079693 -190.84457566 80.644892 -179.5625 81.25 C-178.41726868 81.31166351 -178.41726868 81.31166351 -177.24890137 81.37457275 C-120.94388987 84.33019636 -68.55489773 65.83612794 -26.52734375 28.01538086 C-17.5544012 19.84707718 -8.84783565 11.5450277 -1.55859375 1.80078125 C-1.04425781 1.20652344 -0.52992188 0.61226562 0 0 Z " fill="#9B9A9D" transform="translate(458,53)"/>
<path d="M0 0 C0 0.66 0 1.32 0 2 C-0.77786865 2.03963867 -1.5557373 2.07927734 -2.35717773 2.12011719 C-54.52909306 4.89240832 -103.34773086 17.12170711 -147 47 C-147.65806641 47.44472656 -148.31613281 47.88945312 -148.99414062 48.34765625 C-156.8609138 53.68781636 -164.04391684 59.50603426 -171 66 C-172.37042476 67.19277711 -173.74520119 68.38057932 -175.125 69.5625 C-204.12560877 94.95982672 -220.86302395 130.52031822 -237.6875 164.4375 C-251.74693305 192.71987806 -267.12581277 219.07201981 -289 242 C-290.21623047 243.29550781 -290.21623047 243.29550781 -291.45703125 244.6171875 C-309.2271113 263.04754516 -335.35208275 279.5061445 -361.6484375 280.171875 C-365.76993372 280.21290385 -369.88074669 280.13464872 -374 280 C-372.31564271 276.63128541 -368.44734761 275.83652281 -365.125 274.375 C-352.5833783 268.63986033 -342.85252609 260.51311505 -333 251 C-332.43587402 250.46068848 -331.87174805 249.92137695 -331.29052734 249.36572266 C-327.16236566 245.34384616 -323.5524454 241.12973394 -320.125 236.5 C-319.6096167 235.80640381 -319.0942334 235.11280762 -318.56323242 234.39819336 C-306.14254983 217.42589184 -296.70318123 198.49463872 -288.8125 179.0625 C-288.17038582 177.50183868 -287.5273803 175.94154384 -286.88354492 174.3815918 C-283.97795856 167.33052419 -281.10631693 160.26574921 -278.2414856 153.19804382 C-271.06582731 135.50404672 -263.69987068 118.01715282 -255 101 C-254.41557129 99.854104 -254.41557129 99.854104 -253.81933594 98.68505859 C-228.8127306 50.35731515 -183.44233592 13.81654131 -132 -3 C-122.17069441 -6.0630124 -112.15908414 -8.26907047 -102.0625 -10.25 C-101.23492187 -10.41338867 -100.40734375 -10.57677734 -99.5546875 -10.74511719 C-65.90448558 -17.01775022 -31.69200492 -12.14946355 0 0 Z " fill="#F36100" transform="translate(433,196)"/>
<path d="M0 0 C9.88309548 9.07727954 15.44546498 21.50610528 16.4375 34.75390625 C16.7913539 48.88594648 11.92859268 62.07030914 2.21484375 72.41796875 C-8.26921601 82.27335473 -21.36069056 86.96697665 -35.7421875 86.53515625 C-49.76208107 85.20599751 -61.20973301 79.59062496 -70.75 69.25 C-79.60971758 57.6923985 -82.69758476 45.6918937 -81.75 31.25 C-80.00099061 19.64428517 -74.94482214 9.6310681 -66.75 1.25 C-66.09 1.25 -65.43 1.25 -64.75 1.25 C-64.75 0.59 -64.75 -0.07 -64.75 -0.75 C-45.4188618 -16.00175352 -19.16825084 -15.00308769 0 0 Z " fill="#9B9A9D" transform="translate(313.75,34.75)"/>
</svg>
